/* XPM */
static char * icon_64x64_xpm[] = {
"64 64 97 2",
"  	c None",
". 	c #B5214B",
"+ 	c #B4214B",
"@ 	c #B4214C",
"# 	c #B3214D",
"$ 	c #B2214D",
"% 	c #B1214E",
"& 	c #B1214F",
"* 	c #B0214F",
"= 	c #B82148",
"- 	c #B82149",
"; 	c #B72149",
"> 	c #B6214A",
", 	c #AF2150",
"' 	c #AE2050",
") 	c #AD2051",
"! 	c #BB2146",
"~ 	c #BA2147",
"{ 	c #B92148",
"] 	c #AE2051",
"^ 	c #AC2052",
"/ 	c #AB2052",
"( 	c #BD2144",
"_ 	c #BC2145",
": 	c #B3214C",
"< 	c #AD2052",
"[ 	c #AB2053",
"} 	c #AA2053",
"| 	c #BF2143",
"1 	c #BE2143",
"2 	c #B7214A",
"3 	c #AC2053",
"4 	c #A92054",
"5 	c #C12141",
"6 	c #C02141",
"7 	c #BF2142",
"8 	c #BE2144",
"9 	c #AA2054",
"0 	c #A82055",
"a 	c #C22140",
"b 	c #C22141",
"c 	c #C02142",
"d 	c #BD2145",
"e 	c #AF2050",
"f 	c #C4213E",
"g 	c #C4213F",
"h 	c #C2213F",
"i 	c #C6213D",
"j 	c #C4213D",
"k 	c #C3213F",
"l 	c #A72055",
"m 	c #C6213B",
"n 	c #C6213C",
"o 	c #C5213D",
"p 	c #A72056",
"q 	c #C8213A",
"r 	c #C7213B",
"s 	c #C8213B",
"t 	c #A82054",
"u 	c #C82139",
"v 	c #BB2145",
"w 	c #B1214D",
"x 	c #B02150",
"y 	c #D6212D",
"z 	c #D4212D",
"A 	c #D4212E",
"B 	c #D7212C",
"C 	c #D5212D",
"D 	c #D8212B",
"E 	c #D7212B",
"F 	c #D4212F",
"G 	c #D8212A",
"H 	c #D6212C",
"I 	c #D9212A",
"J 	c #DA2129",
"K 	c #CA2138",
"L 	c #CA2137",
"M 	c #C92139",
"N 	c #D3212F",
"O 	c #CC2136",
"P 	c #CB2137",
"Q 	c #D2212F",
"R 	c #D22130",
"S 	c #CC2135",
"T 	c #CC2137",
"U 	c #D22131",
"V 	c #D12131",
"W 	c #D02132",
"X 	c #D02133",
"Y 	c #CE2133",
"Z 	c #CE2134",
"` 	c #D02131",
" .	c #CF2133",
"..	c #BB2147",
"+.	c #CD2134",
"@.	c #CD2135",
"#.	c #CA2139",
"                                                                                                                                ",
"                                                        . + @ # $ % & *                                                         ",
"                                                = - ; > . . @ # $ $ % * , , ' )                                                 ",
"                                          ! ~ { { = ; > > . + @ # $ % % * , ' ] ) ^ /                                           ",
"                                      ( _ ! ! ~ { = - ; > . . + : $ $ % * , , ' ) < ^ [ }                                       ",
"                                  | 1 ( _ _ ! ~ ~ { = ; 2 > . + @ # $ % % * , ' ] ) ^ 3 [ } 4                                   ",
"                              5 6 7 1 8 ( _ ! ! ~ { { - ; > > . + : # $ % * * , ' ) < ^ [ } 9 4 0                               ",
"                            a b 5 c | 1 ( d _ ! ~ ~ { = ; 2 > . + @ # $ $ % * , e ] ) ^ ^ [ } 4 4 0                             ",
"                        f g h a b 6 7 | 8 ( _ _ ! ~ { { = ; > > . + @ # $ % * * , ' ] ) ^ [ [ 9 4 0 0                           ",
"                      i j f k h b 5 c | 1 ( ( _ ! ! ~ { = - ; > . . + : $ $ % * , e ' ) ^ ^ [ } 9 4 0 l                         ",
"                    m n o f g k a b 6 7 | 8 ( _ _ ! ~ { { = ; 2 > . + @ # $ % % * , ' ] ) ^ [ [ } 4 0 0 p                       ",
"                  q r n i j f g h a 5 c | 1 8 ( _ ! ! ~ { = - ; > . . + : # $ % * * , ' ) < ^ [ } 9 4 0 l                       ",
"                  q s m n i j f k a b 6 7 | 1 ( d _ ! ~ ~ { = ; 2 > . + @ # $ % % * , e ] ) ^ ^ [ } 4 t 0                       ",
"                  u q r m i o f g h a b 6 7 1 8 ( _ v ! ~ { { - ; > > . + : # $ % * * , ' ) < ^ [ } 9 4                         ",
"                    q s m n i j f k h b 5 c | 1 ( ( _ ! ~ ~ { = ; ; > . . @ # $ $ % * , e ] ) ^ ^ [                             ",
"                      q s m n o f g h a b 6 7 | 8 ( _ _ ! ~       ; > > . + : # $ % % * , ' ) )                                 ",
"                            n i j f g h a 5 c | 1 8 ( _                 . . + # $ $ % * , , '                                   ",
"                              n o j f k a b 6 7 | 8                       . + @ # $ % % * , e                                   ",
"                                i j f g h a 5 6 |                           . + : # $ % * *                                     ",
"                                  i j f k a b 6 c                             . @ # $ $ % *                                     ",
"                                  i o f g h a 5                               . + : # $ %                                       ",
"                                    i j f k a a                                 . @ # $ w                                       ",
"                                    n o f g h a                                 . + @ # $ w                                     ",
"                                      i j f g h                                   . + : $ $                                     ",
"                                      n o j g k                                   . + @ # $                                     ",
"                                        i j f g                                     . + : # $                                   ",
"                                          i j f g                                     . @ # $                                   ",
"                                          n o f g                                     . + : # $                     } 4 0       ",
"                                            i j f g                                     . + : $ $ %             ^ [ } 4 4 0     ",
"                                            n o j g                                     . + @ # $ % % * , ' ] ) ^ [ [ } 4 0 0   ",
"                                              i j f g                                     . + : $ $ % * x , ' ) < ^ [ } 9 4 0   ",
"                                                i j g g                                     . @ # $ % % * , e ] ) ^ ^ [ } 4 4   ",
"                                                i o f g                                     . + : # $ % * * , ' ) ) ^ [ [ 9 4   ",
"      y z A                                       i j f g                                     . @ # $ $ % * , e ] ) ^ ^ [ } 9   ",
"    B y C A A                                     n o f g                                     . + : # $ % % * , ' ] ) ^ [ [ }   ",
"  D E B y C A F                                     i j f g                                     . + # $ $ % * , e ' ) < ^ [ [   ",
"  G D B H y A A                                     n o j g                                     . + @ # $ % % * , ' ] ) ^ [     ",
"    G D B y C A A                                     i j f g                                     . + : # $ % * * , ' ) < ^     ",
"    I D B B y A A F                                     i j f g                                     . @ # $ $ % * , ' ] ) ^     ",
"    I G D B y C A A                                     i o f g                                     . + : # $ % * * , ' ) )     ",
"      I D E B y C A F                                     i j f g                                     . + # $ $ % * , e ]       ",
"      J I D B H C A A                                     n o f g                                     . + : # $ % % * , '       ",
"      J I G D B y C A F                                     i j f g                                     . + : $ $ % * , ,       ",
"        J I D B H y A A                                     n i j g                                     . + @ # $ % % *         ",
"        J I G D B y C A A                                   n i o f g                                   . . + : # $ % *         ",
"        J J I D E B y z A F                                 m n i j f g                                 > . . @ # $ w           ",
"          J I G D B y C A A                                 r m n o f g                                 > > . + : # $           ",
"            J I D E B y z A F                               q r n i j f g                               ; > . . + #             ",
"            J J I D B H y A A                               q s m n o j g                               ; 2 > . + @             ",
"              J I D D B y C A F                           K u q r n i j f g                           = - ; > . .               ",
"                J I D E B y A A F                       L K M q s m n i j f k                       ~ { = ; 2 >                 ",
"                J I G D B y C A A N                   O P L K u q r n n o f g h                   ! ~ { { - ;                   ",
"                  J I D E B y z A F Q R             S O T L K M q s m n i j f k a a             _ ! ~ ~ { = -                   ",
"                    I G D B y C A A N R U V W X Y Z Z S O P L K u q s m n o f g h a b 6 7 | 1 ( _ _ ! ~ { {                     ",
"                      I D E B y C A F Q R U ` W  .Y Z S S O L K M q s r n i j f g h a 5 c | 1 8 ( _ ! ..~                       ",
"                        G D B H y A A F Q R V W X Y Y Z S O P L K u q s m n o j g k a b 6 7 | 1 ( _ _                           ",
"                            D B y C A A N R U ` W  .Y Z +.S O L L K u q r n i j f g h a 5 c 7 1 8 (                             ",
"                              B B y A A F Q R V ` X  .Y Z S O T L K M q s m n i j f k a b 5 c | 1                               ",
"                                  y C A A N R U ` W X Y Z +.S O P L K u q r m i o f g h a b 6                                   ",
"                                      z A F Q R U ` W  .Y Z S S O L K M q s m n i j f k a                                       ",
"                                          A N Q U V W X Y Z Z S O P L K u q s m n o f                                           ",
"                                                R U ` W  .Y Z @.S O L L #.u s r                                                 ",
"                                                        X Y Z Z S O P L                                                         ",
"                                                                                                                                "};
