<?xml version="1.0" encoding="iso-8859-1"?>
<!-- Generator: Adobe Illustrator 16.0.0, SVG Export Plug-In . SVG Version: 6.00 Build 0)  -->
<!DOCTYPE svg PUBLIC "-//W3C//DTD SVG 1.1//EN" "http://www.w3.org/Graphics/SVG/1.1/DTD/svg11.dtd">
<svg version="1.1" id="Capa_1" xmlns="http://www.w3.org/2000/svg" xmlns:xlink="http://www.w3.org/1999/xlink" x="0px" y="0px"
	 width="522.574px" height="522.574px" viewBox="0 0 522.574 522.574" style="enable-background:new 0 0 522.574 522.574;"
	 xml:space="preserve">
<g>
	<g>
		<path d="M351.434,149.958V47.83h53.808V0H303.605v132.664c-0.047-0.012-0.117-0.023-0.164-0.035v49.336
			c61.947,18.263,107.312,75.551,107.312,143.313c0,82.417-67.05,149.467-149.467,149.467c-82.423,0-149.467-67.05-149.467-149.467
			c0-67.727,45.307-124.98,107.173-143.272v-49.342c-0.012,0-0.012,0-0.023,0V1.495H117.332v47.83h53.808v100.633
			c-63.553,32.777-107.149,99.004-107.149,175.32c0,108.783,88.506,197.297,197.296,197.297
			c108.784,0,197.297-88.514,197.297-197.297C458.583,248.961,414.981,182.735,351.434,149.958z"/>
		<path d="M124.086,326.889c0,76.287,61.848,138.141,138.135,138.141c76.286,0,138.128-61.854,138.128-138.141
			c-50.83,16.582-94.292-28.305-149.548-0.304C195.544,354.587,169.026,358.954,124.086,326.889z M351.516,352.87
			c11.35,0,20.563,9.214,20.563,20.563s-9.214,20.552-20.563,20.552c-11.362,0-20.552-9.202-20.552-20.552
			S340.177,352.87,351.516,352.87z M303.815,420.796c3.69,0,6.679,2.989,6.679,6.68s-2.988,6.679-6.679,6.679
			c-3.679,0-6.668-2.988-6.668-6.679C297.159,423.785,300.148,420.796,303.815,420.796z M290.994,359.515
			c3.409,0,6.165,2.756,6.165,6.165c0,3.41-2.756,6.166-6.165,6.166c-3.41,0-6.178-2.756-6.178-6.166
			C284.816,362.271,287.583,359.515,290.994,359.515z M257.17,413.521c10.282,0,18.619,8.35,18.619,18.625
			c0,10.264-8.337,18.613-18.619,18.613c-10.27,0-18.613-8.338-18.613-18.613C238.557,421.859,246.889,413.521,257.17,413.521z
			 M243.351,386.127c3.409,0,6.171,2.768,6.171,6.177c0,3.398-2.773,6.154-6.171,6.154c-3.398,0-6.172-2.768-6.172-6.177
			C237.179,388.871,239.941,386.127,243.351,386.127z M198.318,384.551c0,7.018-5.692,12.704-12.71,12.704
			s-12.71-5.687-12.71-12.704c0-7.019,5.692-12.705,12.71-12.705S198.318,377.532,198.318,384.551z"/>
	</g>
</g>
<g>
</g>
<g>
</g>
<g>
</g>
<g>
</g>
<g>
</g>
<g>
</g>
<g>
</g>
<g>
</g>
<g>
</g>
<g>
</g>
<g>
</g>
<g>
</g>
<g>
</g>
<g>
</g>
<g>
</g>
</svg>
